├é┬▒├é┬▒├é┬▒├é┬▒├é┬▒├é┬▒├é┬▒├é┬▒├é┬▒├é┬▒├é┬▒├é┬▒├é┬▒├é┬▒├é┬▒├é┬▒├é┬▒├é┬▒├é┬▒├é┬▒├é┬▒├é┬▒├é┬▒├é┬▒├é┬▒├é┬▒├é┬▒├é┬▒├é┬▒├é┬▒>>www.tornster.com<<├é┬▒├é┬▒├é┬▒├é┬▒├é┬▒├é┬▒├é┬▒├é┬▒├é┬▒├é┬▒├é┬▒├é┬▒├é┬▒├é┬▒├é┬▒├é┬▒├é┬▒├é┬▒├é┬▒├é┬▒├é┬▒├é┬▒├é┬▒├é┬▒├é┬▒├é┬▒├é┬▒├é┬▒├é┬▒├é┬▒
├é┬▒                                                                              ├é┬▒
├é┬▒ INFO:                                                                        ├é┬▒
├é┬▒                                                                              ├é┬▒
├é┬▒ General                                                                      ├é┬▒
├é┬▒ Complete name                    : The Punisher                              ├é┬▒
├é┬▒ Genre                            : Action / Crime / Drama / Thriller         ├é┬▒
├é┬▒ Format                           : AVI                                       ├é┬▒
├é┬▒ Format/Info                      : Audio Video Interleave                    ├é┬▒
├é┬▒ File size                        : 1.37 GiB                                  ├é┬▒
├é┬▒ Duration                         : 1h 58mn                                   ├é┬▒
├é┬▒ Overall bit rate                 : 1 653 Kbps                                ├é┬▒
├é┬▒ Writing application              : VirtualDubMod 1.5.4.1 (build 2178/release)├é┬▒
├é┬▒ Writing library                  : VirtualDubMod build 2178/release          ├é┬▒
├é┬▒                                                                              ├é┬▒
├é┬▒ Video                                                                        ├é┬▒
├é┬▒ Format                           : MPEG-4 Visual                             ├é┬▒
├é┬▒ Format settings, BVOP            : Yes                                       ├é┬▒
├é┬▒ Format settings, QPel            : No                                        ├é┬▒
├é┬▒ Format settings, GMC             : No warppoints                             ├é┬▒
├é┬▒ Format settings, Matrix          : Default                                   ├é┬▒
├é┬▒ Codec ID                         : DX50                                      ├é┬▒
├é┬▒ Codec ID/Hint                    : DivX 5                                    ├é┬▒
├é┬▒ Duration                         : 1h 58mn                                   ├é┬▒
├é┬▒ Bit rate                         : 1 198 Kbps                                ├é┬▒
├é┬▒ Width                            : 720 pixels                                ├é┬▒
├é┬▒ Height                           : 304 pixels                                ├é┬▒
├é┬▒ Display aspect ratio             : 2.35                                      ├é┬▒
├é┬▒ Frame rate                       : 25.000 fps                                ├é┬▒
├é┬▒ Resolution                       : 24 bits                                   ├é┬▒
├é┬▒ Colorimetry                      : 4:2:0                                     ├é┬▒
├é┬▒ Scan type                        : Progressive                               ├é┬▒
├é┬▒ Bits/(Pixel*Frame)               : 0.219                                     ├é┬▒
├é┬▒ Stream size                      : 1.0150 MiB (72%)                          ├é┬▒
├é┬▒ Writing library                  : XviD 2816                                 ├é┬▒
├é┬▒                                                                              ├é┬▒
├é┬▒ Audio                                                                        ├é┬▒
├é┬▒ Format                           : AC-3                                      ├é┬▒
├é┬▒ Format/Info                      : Audio Coding 3                            ├é┬▒
├é┬▒ Codec ID                         : 2000                                      ├é┬▒
├é┬▒ Duration                         : 1h 58mn                                   ├é┬▒
├é┬▒ Bit rate mode                    : Constant                                  ├é┬▒
├é┬▒ Bit rate                         : 448 Kbps                                  ├é┬▒
├é┬▒ Channel(s)                       : 6 channels                                ├é┬▒
├é┬▒ Channel positions                : Front: L C R, Surround: L R, LFE          ├é┬▒
├é┬▒ Sampling rate                    : 48.0 KHz                                  ├é┬▒
├é┬▒ Stream size                      : 380 MiB (27%)                             ├é┬▒
├é┬▒ Alignment                        : Split accross interleaves                 ├é┬▒
├é┬▒ Interleave, duration             : 80 ms (2.00 video frames)                 ├é┬▒
├é┬▒ Interleave, preload duration     : 500 ms                                    ├é┬▒
├é┬▒ Language                         : English                                   ├é┬▒
├é┬▒ Subtitles                        : English                                   ├é┬▒
├é┬▒                                                                              ├é┬▒
├é┬▒ IMDb Rating                      : 6.4/10                                    ├é┬▒
├é┬▒ IMDb URL                         : http://www.imdb.com/title/tt0330793/      ├é┬▒
├é┬▒                                                                              ├é┬▒
├é┬▒├é┬░├é┬░├é┬░├é┬░├é┬░├é┬░├é┬░├é┬░├é┬░├é┬░├é┬░├é┬░├é┬░├é┬░├é┬░├é┬░├é┬░├é┬░├é┬░├é┬░├é┬░├é┬░├é┬░├é┬░├é┬░├é┬░├é┬░├é┬░├é┬░├é┬░├é┬░├é┬░├é┬░├é┬░├é┬░├é┬░├é┬░├é┬░├é┬░├é┬░├é┬░├é┬░├é┬░├é┬░├é┬░├é┬░├é┬░├é┬░├é┬░├é┬░├é┬░├é┬░├é┬░├é┬░├é┬░├é┬░├é┬░├é┬░├é┬░├é┬░├é┬░├é┬░├é┬░├é┬░├é┬░├é┬░├é┬░├é┬░├é┬░├é┬░├é┬░├é┬░├é┬░├é┬░├é┬░├é┬░├é┬░├é┬░├é┬▒
├é┬▒                                                                              ├é┬▒
├é┬▒ Special agent Frank Castle lives the good life with a devoted family and a   ├é┬▒
├é┬▒ job he loves. But his world falls apart when his last assignment pits him    ├é┬▒
├é┬▒ against ruthless buisnessman Howard Saint. Seeking the revenge of his        ├é┬▒
├é┬▒ murdered family, Castle becomes a merciless vigilante hell bent on           ├é┬▒
├é┬▒ destroying Saint and his band of underworld assassins on his mission of      ├é┬▒
├é┬▒ redemption: vindicating the common man with a brand of justice the law       ├é┬▒
├é┬▒ cannot provide.                                                              ├é┬▒
├é┬▒                                                                              ├é┬▒
├é┬▒                                                                              ├é┬▒
├é┬▒                                                                              ├é┬▒
├é┬▒├é┬░├é┬░├é┬░├é┬░├é┬░├é┬░├é┬░├é┬░├é┬░├é┬░├é┬░├é┬░├é┬░├é┬░├é┬░├é┬░├é┬░├é┬░├é┬░├é┬░├é┬░├é┬░├é┬░├é┬░├é┬░├é┬░├é┬░├é┬░├é┬░├é┬░├é┬░├é┬░├é┬░├é┬░├é┬░├é┬░├é┬░├é┬░├é┬░├é┬░├é┬░├é┬░├é┬░├é┬░├é┬░├é┬░├é┬░├é┬░├é┬░├é┬░├é┬░├é┬░├é┬░├é┬░├é┬░├é┬░├é┬░├é┬░├é┬░├é┬░├é┬░├é┬░├é┬░├é┬░├é┬░├é┬░├é┬░├é┬░├é┬░├é┬░├é┬░├é┬░├é┬░├é┬░├é┬░├é┬░├é┬░├é┬░├é┬▒
├é┬▒                                                                              ├é┬▒
├é┬▒ CAST:                                                                        ├é┬▒
├é┬▒                                                                              ├é┬▒
├é┬▒ Tom Jane...................Frank Castle                                      ├é┬▒
├é┬▒ John Travolta..............Howard Saint                                      ├é┬▒
├é┬▒ Laura Harring..............Livia Saint                                       ├é┬▒
├é┬▒ Russell Andrews............Jimmy Weeks                                       ├é┬▒
├é┬▒ Terry Loughlin.............Spoon                                             ├é┬▒
├é┬▒ Kevin Nash.................The Russian                                       ├é┬▒
├é┬▒ Roy Scheider...............Frank Castle Sr.                                  ├é┬▒  
├é┬▒                                                                              ├é┬▒
├é┬▒├é┬░├é┬░├é┬░├é┬░├é┬░├é┬░├é┬░├é┬░├é┬░├é┬░├é┬░├é┬░├é┬░├é┬░├é┬░├é┬░├é┬░├é┬░├é┬░├é┬░├é┬░├é┬░├é┬░├é┬░├é┬░├é┬░├é┬░├é┬░├é┬░├é┬░├é┬░├é┬░├é┬░├é┬░├é┬░├é┬░├é┬░├é┬░├é┬░├é┬░├é┬░├é┬░├é┬░├é┬░├é┬░├é┬░├é┬░├é┬░├é┬░├é┬░├é┬░├é┬░├é┬░├é┬░├é┬░├é┬░├é┬░├é┬░├é┬░├é┬░├é┬░├é┬░├é┬░├é┬░├é┬░├é┬░├é┬░├é┬░├é┬░├é┬░├é┬░├é┬░├é┬░├é┬░├é┬░├é┬░├é┬░├é┬░├é┬▒
├é┬▒                                                                              ├é┬▒
├é┬▒                            Please remember to seed                           ├é┬▒
├é┬▒                                                                              ├é┬▒
├é┬▒                              Standalone Enabled                              ├é┬▒
├é┬▒                                                                              ├é┬▒
├é┬▒                               www.tornster.com                               ├é┬▒
├é┬▒                                                                              ├é┬▒
├é┬▒├é┬▒├é┬▒├é┬▒├é┬▒├é┬▒├é┬▒├é┬▒├é┬▒├é┬▒├é┬▒├é┬▒├é┬▒├é┬▒├é┬▒├é┬▒├é┬▒├é┬▒├é┬▒├é┬▒├é┬▒├é┬▒├é┬▒├é┬▒├é┬▒├é┬▒├é┬▒├é┬▒├é┬▒├é┬▒├é┬▒├é┬▒├é┬▒├é┬▒├é┬▒├é┬▒├é┬▒├é┬▒├é┬▒├é┬▒├é┬▒├é┬▒├é┬▒├é┬▒├é┬▒├é┬▒├é┬▒├é┬▒├é┬▒├é┬▒├é┬▒├é┬▒├é┬▒├é┬▒├é┬▒├é┬▒├é┬▒├é┬▒├é┬▒├é┬▒├é┬▒├é┬▒├é┬▒├é┬▒├é┬▒├é┬▒├é┬▒├é┬▒├é┬▒├é┬▒├é┬▒├é┬▒├é┬▒├é┬▒├é┬▒├é┬▒├é┬▒├é┬▒├é┬▒├é┬▒